<?xml version="1.0" encoding="UTF-8"?>
<svg version="1.1" xmlns="http://www.w3.org/2000/svg" width="425" height="403">
<path d="M0 0 C0.96240318 -0.00436032 0.96240318 -0.00436032 1.94424886 -0.00880873 C4.11488038 -0.01616343 6.28523404 -0.00914023 8.45586395 -0.002285 C10.0194655 -0.00458728 11.58306596 -0.00776223 13.14666414 -0.01173949 C17.45950985 -0.02012818 21.77226764 -0.01594385 26.08511376 -0.00976706 C30.73001991 -0.00526013 35.37491045 -0.01221754 40.01981354 -0.0177269 C49.12556997 -0.02664144 58.23129352 -0.02468974 67.33705127 -0.01890162 C74.73449212 -0.01439321 82.13192372 -0.01376865 89.52936554 -0.01594925 C91.10588577 -0.01640895 91.10588577 -0.01640895 92.71425489 -0.01687793 C94.84906336 -0.01751736 96.98387183 -0.01816578 99.1186803 -0.01882312 C119.15827775 -0.02453245 139.19785692 -0.01795908 159.23745137 -0.00722238 C176.44938419 0.00171367 193.66129003 0.0001618 210.87322235 -0.00905991 C230.83887982 -0.01975191 250.80452125 -0.02398307 270.77018118 -0.01783538 C272.89733728 -0.01719825 275.02449337 -0.01656951 277.15164948 -0.01594925 C278.19837587 -0.0156407 279.24510226 -0.01533215 280.32354763 -0.01501425 C287.71601004 -0.01328409 295.10846232 -0.0162093 302.50092316 -0.02090836 C311.50425575 -0.02650532 320.50755345 -0.02502579 329.51088202 -0.01434687 C334.1085182 -0.00907413 338.70609611 -0.0070605 343.30373192 -0.01364517 C347.50672497 -0.0195738 351.70960534 -0.01638102 355.91258806 -0.00569007 C357.43879758 -0.00344285 358.96501649 -0.00462163 360.49122006 -0.00944164 C362.5546233 -0.0154619 364.61763288 -0.00934848 366.68101501 0 C368.4052177 0.00048706 368.4052177 0.00048706 370.16425276 0.00098395 C372.84050751 0.25168228 372.84050751 0.25168228 374.84050751 2.25168228 C375.09120584 4.92793703 375.09120584 4.92793703 375.09218979 8.41117477 C375.09509667 9.0527769 375.09800355 9.69437902 375.10099852 10.35542363 C375.10835322 12.52605515 375.10133002 14.69640881 375.09447479 16.86703873 C375.09677707 18.43064027 375.09995202 19.99424074 375.10392928 21.55783892 C375.11231797 25.87068463 375.10813364 30.18344241 375.10195684 34.49628854 C375.09744992 39.14119468 375.10440733 43.78608522 375.10991669 48.43098831 C375.11883123 57.53674475 375.11687953 66.6424683 375.11109141 75.74822605 C375.106583 83.14566689 375.10595844 90.54309849 375.10813904 97.94054031 C375.1084455 98.9915538 375.10875197 100.04256728 375.10906772 101.12542966 C375.10970714 103.26023813 375.11035557 105.3950466 375.11101291 107.52985507 C375.11672224 127.56945252 375.11014887 147.6090317 375.09941217 167.64862615 C375.09047612 184.86055896 375.09202799 202.0724648 375.10124969 219.28439713 C375.11194169 239.25005459 375.11617286 259.21569603 375.11002517 279.18135595 C375.10938804 281.30851205 375.1087593 283.43566815 375.10813904 285.56282425 C375.10783049 286.60955064 375.10752194 287.65627703 375.10720403 288.73472241 C375.10547388 296.12718481 375.10839908 303.51963709 375.11309814 310.91209793 C375.11869511 319.91543052 375.11721558 328.91872822 375.10653666 337.92205679 C375.10126392 342.51969297 375.09925029 347.11727088 375.10583496 351.71490669 C375.11176359 355.91789974 375.10857081 360.12078011 375.09787986 364.32376283 C375.09563264 365.84997236 375.09681142 367.37619126 375.10163143 368.90239483 C375.10765169 370.96579807 375.10153827 373.02880765 375.09218979 375.09218979 C375.09186508 376.24165824 375.09154038 377.3911267 375.09120584 378.57542753 C374.84050751 381.25168228 374.84050751 381.25168228 372.84050751 383.25168228 C370.16425276 383.50238061 370.16425276 383.50238061 366.68101501 383.50336456 C366.03941289 383.50627144 365.39781077 383.50917833 364.73676616 383.5121733 C362.56613464 383.51952799 360.39578098 383.51250479 358.22515106 383.50564957 C356.66154952 383.50795185 355.09794905 383.51112679 353.53435087 383.51510406 C349.22150516 383.52349274 344.90874738 383.51930842 340.59590125 383.51313162 C335.95099511 383.5086247 331.30610457 383.5155821 326.66120148 383.52109146 C317.55544504 383.530006 308.44972149 383.52805431 299.34396374 383.52226618 C291.9465229 383.51775778 284.5490913 383.51713322 277.15164948 383.51931381 C276.10063599 383.51962028 275.04962251 383.51992674 273.96676013 383.5202425 C271.83195166 383.52088192 269.69714318 383.52153034 267.56233472 383.52218768 C247.52273727 383.52789701 227.48315809 383.52132364 207.44356364 383.51058695 C190.23163083 383.50165089 173.01972499 383.50320276 155.80779266 383.51242447 C135.8421352 383.52311647 115.87649376 383.52734763 95.91083384 383.52119994 C93.78367774 383.52056281 91.65652164 383.51993407 89.52936554 383.51931381 C87.95927595 383.51885099 87.95927595 383.51885099 86.35746738 383.51837881 C78.96500498 383.51664865 71.5725527 383.51957386 64.18009186 383.52427292 C55.17675927 383.52986989 46.17346157 383.52839036 37.17013299 383.51771143 C32.57249681 383.51243869 27.97491891 383.51042507 23.3772831 383.51700974 C19.17429005 383.52293837 14.97140968 383.51974559 10.76842695 383.50905463 C9.24221743 383.50680741 7.71599852 383.50798619 6.18979496 383.51280621 C4.12639171 383.51882646 2.06338214 383.51271305 0 383.50336456 C-1.72420268 383.50287751 -1.72420268 383.50287751 -3.48323774 383.50238061 C-6.15949249 383.25168228 -6.15949249 383.25168228 -8.15949249 381.25168228 C-8.41019082 378.57542753 -8.41019082 378.57542753 -8.41117477 375.09218979 C-8.4155351 374.12978661 -8.4155351 374.12978661 -8.41998351 373.14794093 C-8.4273382 370.97730941 -8.420315 368.80695575 -8.41345978 366.63632584 C-8.41576206 365.07272429 -8.41893701 363.50912383 -8.42291427 361.94552565 C-8.43130295 357.63267994 -8.42711863 353.31992215 -8.42094183 349.00707603 C-8.41643491 344.36216988 -8.42339231 339.71727934 -8.42890167 335.07237625 C-8.43781622 325.96661982 -8.43586452 316.86089627 -8.43007639 307.75513852 C-8.42556799 300.35769767 -8.42494343 292.96026607 -8.42712402 285.56282425 C-8.42743049 284.51181076 -8.42773696 283.46079728 -8.42805271 282.3779349 C-8.42869213 280.24312643 -8.42934056 278.10831796 -8.42999789 275.97350949 C-8.43570722 255.93391204 -8.42913385 235.89433287 -8.41839716 215.85473841 C-8.4094611 198.6428056 -8.41101298 181.43089976 -8.42023468 164.21896744 C-8.43092668 144.25330997 -8.43515784 124.28766854 -8.42901015 104.32200861 C-8.42837302 102.19485251 -8.42774428 100.06769641 -8.42712402 97.94054031 C-8.42681547 96.89381392 -8.42650692 95.84708753 -8.42618902 94.76864216 C-8.42445886 87.37617975 -8.42738407 79.98372747 -8.43208313 72.59126663 C-8.4376801 63.58793404 -8.43620057 54.58463634 -8.42552164 45.58130777 C-8.42024891 40.98367159 -8.41823528 36.38609368 -8.42481995 31.78845787 C-8.43074858 27.58546482 -8.4275558 23.38258445 -8.41686484 19.17960173 C-8.41461762 17.65339221 -8.4157964 16.1271733 -8.42061642 14.60096973 C-8.42663667 12.53756649 -8.42052326 10.47455691 -8.41117477 8.41117477 C-8.41085007 7.26170632 -8.41052536 6.11223786 -8.41019082 4.92793703 C-7.89890853 -0.53010363 -4.66148336 0.00131679 0 0 Z " fill="#9DBD7B" transform="translate(31.15949249267578,3.7483177185058594)"/>
<path d="M0 0 C0.69480469 0.6290625 1.38960937 1.258125 2.10546875 1.90625 C2.10546875 2.56625 2.10546875 3.22625 2.10546875 3.90625 C0.69394531 4.57720703 0.69394531 4.57720703 -0.74609375 5.26171875 C-2.00412 5.87195537 -3.26192054 6.48265747 -4.51953125 7.09375 C-5.13699219 7.38572266 -5.75445312 7.67769531 -6.390625 7.97851562 C-18.03108445 13.6762142 -25.44970028 23.86980506 -29.89453125 35.90625 C-31.3177319 41.83310681 -32.12930444 47.8649857 -32.89453125 53.90625 C-30.25453125 53.90625 -27.61453125 53.90625 -24.89453125 53.90625 C-24.98154297 52.81570312 -24.98154297 52.81570312 -25.0703125 51.703125 C-25.54917554 41.03132011 -22.39368797 32.06448447 -15.60546875 23.77734375 C-6.59875594 13.92753682 3.31790621 8.37003973 16.84082031 7.72924805 C18.22580642 7.70263618 19.61092841 7.68251864 20.99609375 7.66796875 C21.7407489 7.659897 22.48540405 7.65182526 23.25262451 7.64350891 C24.8225273 7.62974162 26.39245909 7.61898692 27.96240234 7.61108398 C29.55070922 7.59957921 31.13897789 7.57915095 32.72705078 7.54956055 C52.3511918 7.18479199 52.3511918 7.18479199 60.54296875 13.90625 C61.31640625 14.89625 61.31640625 14.89625 62.10546875 15.90625 C62.90984375 16.89625 62.90984375 16.89625 63.73046875 17.90625 C66.02770968 21.24769135 67.35188158 23.8448899 67.37962341 27.94000244 C67.38959854 28.73328445 67.39957367 29.52656647 67.40985107 30.34388733 C67.41051575 31.20525803 67.41118042 32.06662872 67.41186523 32.95410156 C67.42018875 33.86842453 67.42851227 34.7827475 67.43708801 35.72477722 C67.46119155 38.74885311 67.46996134 41.77271322 67.4765625 44.796875 C67.48552976 46.90191716 67.49465162 49.00695866 67.50392151 51.11199951 C67.52041587 55.52699329 67.52811223 59.9419112 67.53100586 64.35693359 C67.53638484 70.00394944 67.57404343 75.65024832 67.61975002 81.29706192 C67.64955107 85.64663266 67.65673011 89.99603155 67.65773201 94.3456955 C67.66192955 96.42684965 67.67434503 98.50800453 67.69524956 100.58905792 C67.72222171 103.50684154 67.71732052 106.42297408 67.70483398 109.34082031 C67.71966827 110.19409409 67.73450256 111.04736786 67.74978638 111.92649841 C67.6630595 119.0731242 64.99898423 123.66901238 60.296875 128.9296875 C59.49056641 129.59871094 59.49056641 129.59871094 58.66796875 130.28125 C58.13300781 130.74273437 57.59804688 131.20421875 57.046875 131.6796875 C52.0787147 134.8185252 46.98389113 135.20503199 41.25 135.171875 C40.13657478 135.17474518 40.13657478 135.17474518 39.00065613 135.17767334 C37.43492289 135.17902868 35.86917817 135.17537791 34.3034668 135.16699219 C31.94227935 135.15635947 29.58186598 135.16686983 27.22070312 135.1796875 C11.34141892 135.1974942 -1.29706267 133.43816555 -13.33203125 121.96875 C-21.54372769 113.10965841 -25.34876704 104.10329238 -25 91.99609375 C-24.96519531 91.30644531 -24.93039063 90.61679688 -24.89453125 89.90625 C-27.53453125 89.90625 -30.17453125 89.90625 -32.89453125 89.90625 C-30.80089136 106.3762171 -26.20400479 120.78901137 -12.73828125 131.64453125 C-2.86718675 138.64814231 7.05257905 140.92901192 18.91796875 141.46875 C19.80162109 141.51193359 20.68527344 141.55511719 21.59570312 141.59960938 C23.76546498 141.70516536 25.93544785 141.80616071 28.10546875 141.90625 C28.17559481 157.31826229 28.22847454 172.73026261 28.26090527 188.14239693 C28.27636464 195.29876163 28.29743628 202.45502711 28.33178711 209.61132812 C28.36171807 215.84981856 28.38105051 222.08823712 28.38773423 228.32679737 C28.39164029 231.62915226 28.40238092 234.93125401 28.42265892 238.23355484 C28.44441409 241.92291743 28.44743639 245.61185319 28.44604492 249.30126953 C28.45683075 250.39243576 28.46761658 251.48360199 28.47872925 252.60783386 C28.45239332 259.05473493 27.97704948 263.78815306 23.421875 268.734375 C22.84308594 269.20359375 22.26429688 269.6728125 21.66796875 270.15625 C21.09175781 270.63578125 20.51554688 271.1153125 19.921875 271.609375 C14.27320902 275.64240104 9.11143258 275.27314932 2.35546875 275.28125 C1.29585937 275.30574219 0.23625 275.33023437 -0.85546875 275.35546875 C-7.69150088 275.38091304 -12.07970041 274.55648485 -17.89453125 270.90625 C-25.24071601 263.56006524 -25.25431329 255.8767037 -25.2734375 246.00024414 C-25.27083675 244.64769344 -25.26466123 243.29514481 -25.25488281 241.94262695 C-25.21899118 233.730423 -25.1990369 227.22171987 -30.89453125 220.90625 C-35.45187771 216.46575857 -40.04135899 214.83939595 -46.33203125 214.59375 C-53.56726485 214.78798446 -58.78164418 217.90956491 -63.89453125 222.90625 C-66.56646976 227.34484118 -67.26244436 230.6215072 -67.265625 235.7734375 C-67.29172852 237.72056641 -67.29172852 237.72056641 -67.31835938 239.70703125 C-67.32839989 241.74305192 -67.33203323 243.77889707 -67.33032227 245.81494141 C-67.34820083 255.66245693 -67.71631634 262.21849669 -74.45703125 269.78125 C-80.89991004 275.39811869 -87.04132225 275.13327503 -95.20703125 275.21875 C-96.11904297 275.24775391 -97.03105469 275.27675781 -97.97070312 275.30664062 C-104.75139808 275.3698299 -110.36759839 274.25692096 -115.41870117 269.45825195 C-120.00033231 264.19430307 -121.14486634 260.64282153 -121.13504028 253.70562744 C-121.13674913 252.97942097 -121.13845798 252.25321451 -121.14021862 251.50500178 C-121.14351325 249.07126804 -121.13251036 246.63780991 -121.12158203 244.20410156 C-121.12101791 242.45969143 -121.12133449 240.71528083 -121.12246704 238.97087097 C-121.12304152 234.23361411 -121.11127173 229.49645826 -121.09731913 224.75922489 C-121.08482771 219.80911329 -121.08364252 214.85899944 -121.08126831 209.90887451 C-121.07504887 200.53437881 -121.05863176 191.15992969 -121.03856933 181.78545451 C-121.01622478 171.11326177 -121.00522053 160.44106683 -120.99517846 149.76885653 C-120.97426595 127.81462834 -120.93908094 105.8604421 -120.89453125 83.90625 C-122.99354733 84.0248608 -125.09188202 84.15557628 -127.18984985 84.29147339 C-128.35841837 84.36298048 -129.52698689 84.43448757 -130.73096657 84.50816154 C-134.05189455 84.72445839 -134.05189455 84.72445839 -137.16943359 86.74267578 C-139.81409096 91.59258665 -139.5627088 96.08357741 -139.49609375 101.5234375 C-139.50410004 102.65395538 -139.51210632 103.78447327 -139.52035522 104.94924927 C-139.54342881 108.56028083 -139.53396203 112.17018805 -139.51953125 115.78125 C-139.51567959 119.38496068 -139.51916704 122.98817247 -139.54013062 126.59182739 C-139.55218482 128.83225547 -139.54960866 131.07282352 -139.53042603 133.3132019 C-139.55703288 140.76905833 -140.30499138 145.74125682 -145.14453125 151.65625 C-152.36191313 157.56138063 -159.30820692 157.42575043 -168.33203125 157.40625 C-170.11577148 157.44878906 -170.11577148 157.44878906 -171.93554688 157.4921875 C-179.24312453 157.50841754 -184.29533444 156.79521616 -189.89453125 151.90625 C-195.14947351 146.51301979 -196.14691591 140.97289486 -196.16015625 133.609375 C-196.1620697 132.93453064 -196.16398315 132.25968628 -196.16595459 131.56439209 C-196.16730719 130.14920678 -196.16367586 128.73400867 -196.15527344 127.31884766 C-196.14449267 125.14848324 -196.15523374 122.97893387 -196.16796875 120.80859375 C-196.1666483 119.42968567 -196.16408829 118.0507781 -196.16015625 116.671875 C-196.15790039 115.42180664 -196.15564453 114.17173828 -196.15332031 112.88378906 C-195.89453125 109.90625 -195.89453125 109.90625 -193.89453125 107.90625 C-191.14453125 107.640625 -191.14453125 107.640625 -187.89453125 107.65625 C-186.28578125 107.64851563 -186.28578125 107.64851563 -184.64453125 107.640625 C-181.89453125 107.90625 -181.89453125 107.90625 -179.89453125 109.90625 C-179.62329102 111.93408203 -179.62329102 111.93408203 -179.5859375 114.4140625 C-179.56080078 115.31898438 -179.53566406 116.22390625 -179.50976562 117.15625 C-179.47504039 119.04941861 -179.44370293 120.94265288 -179.41601562 122.8359375 C-179.2419696 128.84689281 -178.41658404 133.422981 -175.89453125 138.90625 C-173.032809 141.45000311 -169.60564534 141.26480067 -165.859375 141.16015625 C-162.93825333 140.78267532 -161.15138601 139.76483628 -158.89453125 137.90625 C-156.91694584 134.75601162 -156.64416939 132.30798677 -156.63916016 128.62207031 C-156.62872177 127.03957489 -156.62872177 127.03957489 -156.61807251 125.42510986 C-156.61906952 124.28966736 -156.62006653 123.15422485 -156.62109375 121.984375 C-156.60079998 119.57291207 -156.5799491 117.16145377 -156.55859375 114.75 C-156.53602031 110.95373627 -156.51953342 107.15765582 -156.51367188 103.36132812 C-156.50412567 99.69367429 -156.47031547 96.0268436 -156.43359375 92.359375 C-156.43863922 91.23202942 -156.44368469 90.10468384 -156.44888306 88.94317627 C-156.35316587 81.23856084 -155.31718862 75.55269157 -149.94165039 69.82568359 C-143.71411075 65.63490195 -138.72678525 65.14952213 -131.33203125 65.53125 C-129.81899414 65.57185547 -129.81899414 65.57185547 -128.27539062 65.61328125 C-125.81279271 65.68330773 -123.35485593 65.78142541 -120.89453125 65.90625 C-120.92933594 65.10703125 -120.96414062 64.3078125 -121 63.484375 C-121.19816859 55.44439214 -120.29104793 48.57097146 -117.89453125 40.90625 C-117.61609375 39.99101563 -117.33765625 39.07578125 -117.05078125 38.1328125 C-110.90445765 19.64085614 -97.74054167 4.30810317 -80.5625 -4.875 C-54.72400967 -17.14753091 -23.82519281 -17.23387766 0 0 Z " fill="#FDFDFD" transform="translate(264.89453125,65.09375)"/>
<path d="M0 0 C1.94140625 1.56640625 1.94140625 1.56640625 2.94140625 2.56640625 C5.7188109 2.68977007 8.4751225 2.75259171 11.25390625 2.77734375 C12.98698812 2.80544297 14.72006089 2.83410758 16.453125 2.86328125 C19.18700611 2.90432611 21.92072305 2.94120526 24.65478516 2.96777344 C27.29235219 2.99563337 29.92914447 3.04153642 32.56640625 3.08984375 C33.36989502 3.09309662 34.17338379 3.09634949 35.0012207 3.09970093 C44.80937117 3.30884756 53.07526332 6.42973986 59.94140625 13.56640625 C65.5256997 21.73797193 67.08576538 28.43274433 67.1184082 38.22119141 C67.1249794 39.08207367 67.1315506 39.94295593 67.13832092 40.82992554 C67.15798879 43.67177428 67.16970335 46.51357027 67.1796875 49.35546875 C67.18376303 50.33008434 67.18783855 51.30469994 67.19203758 52.30884933 C67.21287276 57.46973201 67.22718429 62.63058832 67.23657227 67.79150391 C67.24761822 73.10065696 67.28200469 78.40938879 67.32174397 83.71839333 C67.34799054 87.81929257 67.35627133 91.92009274 67.35985374 96.02106857 C67.36470061 97.97693087 67.37625985 99.93278932 67.39489174 101.88856888 C67.51136135 114.92690808 67.55137196 126.805492 58.0078125 136.84375 C50.79963099 142.85283893 43.34576166 144.74138888 34.19140625 144.62890625 C33.49402344 144.62439453 32.79664063 144.61988281 32.078125 144.61523438 C30.36584822 144.60350645 28.65361592 144.58557278 26.94140625 144.56640625 C26.94140625 145.88640625 26.94140625 147.20640625 26.94140625 148.56640625 C27.93140625 148.60765625 28.92140625 148.64890625 29.94140625 148.69140625 C34.94703739 149.39199154 38.20752815 152.35429277 41.94140625 155.56640625 C42.70453125 156.20578125 43.46765625 156.84515625 44.25390625 157.50390625 C47.44677751 161.40630445 49.08887023 164.94430242 48.62890625 170.00390625 C48.28859375 171.27234375 48.28859375 171.27234375 47.94140625 172.56640625 C47.28140625 172.56640625 46.62140625 172.56640625 45.94140625 172.56640625 C44.79325628 174.86270619 44.63370816 176.64338711 44.37890625 179.19140625 C44.29511719 180.00867188 44.21132813 180.8259375 44.125 181.66796875 C44.06441406 182.29445312 44.00382813 182.9209375 43.94140625 183.56640625 C43.61140625 183.56640625 43.28140625 183.56640625 42.94140625 183.56640625 C42.90402344 182.55320313 42.86664063 181.54 42.828125 180.49609375 C42.76242237 179.14449686 42.69597654 177.79293596 42.62890625 176.44140625 C42.60634766 175.77625 42.58378906 175.11109375 42.56054688 174.42578125 C42.26487166 168.94234992 40.99909052 164.84838786 37.29296875 160.73828125 C36.72320312 160.2690625 36.1534375 159.79984375 35.56640625 159.31640625 C35.00179687 158.836875 34.4371875 158.35734375 33.85546875 157.86328125 C31.65464306 156.37210956 29.41522374 155.52142666 26.94140625 154.56640625 C26.94693701 155.12833081 26.95246777 155.69025537 26.95816612 156.26920795 C27.09105631 169.98410108 27.18976214 183.69888039 27.25227928 197.41428089 C27.28353325 204.04718404 27.32589946 210.67962098 27.39404297 217.31225586 C27.45944438 223.71840151 27.4951569 230.12409996 27.51066971 236.53055382 C27.52171857 238.96931684 27.54329446 241.4080566 27.57578659 243.84662819 C27.61962377 247.27433956 27.62532864 250.70022529 27.62255859 254.12817383 C27.64413025 255.12655777 27.6657019 256.12494171 27.68792725 257.15357971 C27.6218615 264.7557387 25.3589642 270.37873264 20.94140625 276.56640625 C12.84843143 284.38233463 4.5389272 284.95113453 -6.30859375 285.00390625 C-7.48550781 285.03677734 -8.66242188 285.06964844 -9.875 285.10351562 C-18.44324393 285.15593536 -25.25157315 283.73741502 -31.85400391 278.00854492 C-40.01727239 269.26362778 -40.61153625 259.91061811 -40.55859375 248.37890625 C-40.5464709 245.71730232 -40.56066413 243.0604151 -40.58984375 240.3984375 C-40.58533203 239.23030518 -40.58082031 238.06217285 -40.57617188 236.85864258 C-41.16409104 232.84645132 -42.54241629 230.71191271 -45.05859375 227.56640625 C-49.73351049 224.44979509 -54.58518368 224.97351375 -60.05859375 225.56640625 C-63.23657926 226.74074756 -65.30261132 228.41388038 -67.18774414 231.2878418 C-68.35771381 234.34904922 -68.33330683 236.99897031 -68.3671875 240.2734375 C-68.39232422 241.58248047 -68.41746094 242.89152344 -68.44335938 244.24023438 C-68.47200713 246.30703511 -68.49604683 248.37376029 -68.51489258 250.44067383 C-68.64336097 262.24705996 -70.06491768 269.63916217 -78.05859375 278.56640625 C-85.72966952 284.63934123 -92.9389548 284.90650174 -102.37109375 284.87890625 C-103.46099609 284.89501953 -104.55089844 284.91113281 -105.67382812 284.92773438 C-114.86742643 284.9332627 -122.63990543 283.74597473 -129.5546875 277.3125 C-134.84605257 271.169019 -136.18467747 264.5359327 -136.17884827 256.63153076 C-136.17970269 255.93390916 -136.18055712 255.23628756 -136.18143743 254.51752591 C-136.18308417 252.18060311 -136.17758405 249.84375213 -136.17211914 247.50683594 C-136.17183707 245.8313904 -136.17199539 244.15594474 -136.17256165 242.48049927 C-136.17284884 237.93128363 -136.16696465 233.3820943 -136.15998769 228.83288479 C-136.15374123 224.07895986 -136.15314933 219.32503435 -136.15196228 214.57110596 C-136.14885278 205.56849446 -136.14064452 196.56589508 -136.13061279 187.56328893 C-136.11943983 177.31429971 -136.11393822 167.06530992 -136.10891736 156.81631613 C-136.09846161 135.73300606 -136.08086952 114.64970692 -136.05859375 93.56640625 C-137.37859375 93.89640625 -138.69859375 94.22640625 -140.05859375 94.56640625 C-140.06001877 95.20818817 -140.06144379 95.84997009 -140.06291199 96.51119995 C-140.08269275 103.22827163 -140.13714562 109.94444478 -140.21118164 116.66113281 C-140.23429043 119.16334574 -140.24874051 121.66565496 -140.25415039 124.16796875 C-140.2634915 127.77794916 -140.30459905 131.38642983 -140.3515625 134.99609375 C-140.34762985 136.1037912 -140.3436972 137.21148865 -140.33964539 138.35275269 C-140.49011837 146.47536252 -142.16880473 153.39444379 -147.84294128 159.48019409 C-155.39809979 166.44379068 -162.81539161 167.07139974 -172.6887207 167.01245117 C-174.85530528 167.00396807 -177.01922389 167.03269319 -179.18554688 167.06445312 C-188.36292234 167.11095262 -195.64637916 166.29227635 -202.87109375 160.19140625 C-208.71678619 153.17657533 -211.37529402 147.73276138 -211.32421875 138.59765625 C-211.3261322 137.83972778 -211.32804565 137.08179932 -211.33001709 136.30090332 C-211.33137352 134.70401679 -211.32771505 133.10711903 -211.31933594 131.51025391 C-211.30862841 129.07429088 -211.31924932 126.63906525 -211.33203125 124.203125 C-211.33070956 122.6471338 -211.32814697 121.09114305 -211.32421875 119.53515625 C-211.33029144 118.44902039 -211.33029144 118.44902039 -211.33648682 117.34094238 C-211.29943911 113.32014158 -210.9476951 110.14379897 -209.05859375 106.56640625 C-205.0568858 103.19732125 -201.08491728 103.10794331 -196.05859375 103.19140625 C-195.35992187 103.17980469 -194.66125 103.16820312 -193.94140625 103.15625 C-189.46982937 103.18156081 -186.59175391 103.7996301 -183.05859375 106.56640625 C-180.82836 109.91175688 -180.7996895 111.09110182 -180.75 115.00390625 C-180.72486328 116.06351563 -180.69972656 117.123125 -180.67382812 118.21484375 C-180.63867279 120.44916072 -180.6074225 122.68354254 -180.58007812 124.91796875 C-180.55365234 125.97757813 -180.52722656 127.0371875 -180.5 128.12890625 C-180.48654541 129.09957031 -180.47309082 130.07023438 -180.45922852 131.0703125 C-180.23975163 133.58892569 -180.23975163 133.58892569 -178.78100586 135.40625 C-176.85177624 136.93884282 -176.85177624 136.93884282 -173.05859375 136.56640625 C-171.81676013 134.082739 -171.92740744 132.41122649 -171.91674805 129.6328125 C-171.90971359 128.60414063 -171.90267914 127.57546875 -171.89543152 126.515625 C-171.89126724 125.39800781 -171.88710297 124.28039062 -171.8828125 123.12890625 C-171.85959895 120.76561624 -171.83548102 118.40233498 -171.81054688 116.0390625 C-171.77554253 112.31097703 -171.74615454 108.58320967 -171.73266602 104.85498047 C-171.71710363 101.25839417 -171.67682175 97.66274281 -171.6328125 94.06640625 C-171.63472092 92.96498291 -171.63662933 91.86355957 -171.63859558 90.72875977 C-171.50810224 82.38929905 -170.12430363 75.18237175 -164.62109375 68.69140625 C-163.77546875 67.99015625 -162.92984375 67.28890625 -162.05859375 66.56640625 C-161.33671875 65.84453125 -160.61484375 65.12265625 -159.87109375 64.37890625 C-152.83708485 59.84587829 -144.15302865 60.28941038 -136.05859375 60.56640625 C-136.11853516 58.84744141 -136.11853516 58.84744141 -136.1796875 57.09375 C-136.14585778 39.97966997 -126.78230149 21.50209024 -115.0390625 9.49609375 C-114.38550781 8.85929687 -113.73195313 8.2225 -113.05859375 7.56640625 C-112.25421875 6.70015625 -111.44984375 5.83390625 -110.62109375 4.94140625 C-79.5331963 -23.87176699 -33.64586787 -25.62300817 0 0 Z M-111.21484375 15.90625 C-119.91070016 26.22421809 -124.98751687 37.48956276 -128.05859375 50.56640625 C-128.25582031 51.38496094 -128.45304687 52.20351562 -128.65625 53.046875 C-129.15765038 56.18671232 -129.1531941 59.20097122 -129.12109375 62.37890625 C-129.11207031 63.54035156 -129.10304688 64.70179687 -129.09375 65.8984375 C-129.08214844 66.77886719 -129.07054687 67.65929687 -129.05859375 68.56640625 C-129.9875647 68.5192749 -129.9875647 68.5192749 -130.93530273 68.47119141 C-133.78851593 68.34513837 -136.641142 68.26802476 -139.49609375 68.19140625 C-140.46998047 68.14113281 -141.44386719 68.09085937 -142.44726562 68.0390625 C-148.78958246 67.91179193 -152.83744423 68.94059326 -158.10571289 72.48583984 C-164.38591025 79.17665644 -164.62687579 86.139696 -164.5625 94.984375 C-164.57192123 96.15978348 -164.58134247 97.33519196 -164.59104919 98.54621887 C-164.61961149 102.28229416 -164.62277964 106.01773078 -164.62109375 109.75390625 C-164.62470129 113.5006995 -164.63421063 117.24703192 -164.66184998 120.99372864 C-164.67864143 123.31974952 -164.68151188 125.64592264 -164.6688385 127.9719696 C-164.67572189 129.02689102 -164.68260529 130.08181244 -164.68969727 131.16870117 C-164.6887355 132.09277267 -164.68777374 133.01684418 -164.68678284 133.96891785 C-165.22387049 137.72103725 -166.7399348 140.54078262 -169.74609375 142.87890625 C-173.95216767 144.12936066 -178.10291285 143.98925617 -182.37109375 143.06640625 C-185.75505283 140.05844263 -186.8507834 135.34629601 -187.36108398 130.97558594 C-187.50251726 128.21254142 -187.58063899 125.45774148 -187.62109375 122.69140625 C-187.65544123 120.81883243 -187.69799537 118.94638541 -187.75 117.07421875 C-187.76232666 116.2558252 -187.77465332 115.43743164 -187.78735352 114.59423828 C-187.87998093 112.3402737 -187.87998093 112.3402737 -190.05859375 110.56640625 C-192.88729624 110.24648919 -192.88729624 110.24648919 -196.05859375 110.31640625 C-197.13109375 110.31125 -198.20359375 110.30609375 -199.30859375 110.30078125 C-202.20221553 110.28612976 -202.20221553 110.28612976 -204.05859375 112.56640625 C-204.46024783 116.8742801 -204.38751801 121.19791227 -204.37426758 125.52246094 C-204.37113584 127.66264111 -204.39445738 129.80139999 -204.41992188 131.94140625 C-204.57636393 143.53785996 -204.57636393 143.53785996 -199.375 153.58984375 C-198.50681641 154.25886719 -198.50681641 154.25886719 -197.62109375 154.94140625 C-197.04488281 155.40289062 -196.46867187 155.864375 -195.875 156.33984375 C-189.73757445 160.48425584 -183.98380724 159.89798299 -176.74609375 159.87890625 C-174.92948242 159.90307617 -174.92948242 159.90307617 -173.07617188 159.92773438 C-165.04207667 159.9321318 -159.66680212 159.51857674 -153.30859375 154.31640625 C-147.69060559 147.44997627 -147.64932553 141.24803406 -147.72265625 132.68359375 C-147.71015121 130.35937217 -147.69711444 128.0351534 -147.68359375 125.7109375 C-147.67965468 122.06581777 -147.68367541 118.42097283 -147.69824219 114.77587891 C-147.70679801 111.24470006 -147.68516321 107.71467125 -147.66015625 104.18359375 C-147.67350006 103.09392303 -147.68684387 102.00425232 -147.70059204 100.88156128 C-147.65670321 96.39527116 -147.50219187 93.37989966 -145.33349609 89.40283203 C-141.68736996 87.35823976 -139.48496178 87.20441698 -135.35391235 86.95162964 C-133.58839492 86.8372672 -133.58839492 86.8372672 -131.78721046 86.72059441 C-130.88676695 86.66971231 -129.98632343 86.61883022 -129.05859375 86.56640625 C-129.06320271 87.47124252 -129.06781168 88.3760788 -129.07256031 89.30833435 C-129.18302496 111.3340698 -129.26574333 133.35975744 -129.31765461 155.38571167 C-129.34342638 166.03735304 -129.3785574 176.68880941 -129.43579102 187.34033203 C-129.48565727 196.6251777 -129.51789223 205.90988937 -129.52903622 215.19486523 C-129.53554949 220.11037473 -129.55083628 225.02550091 -129.58724403 229.94088745 C-129.62125436 234.57023044 -129.63163653 239.19903324 -129.62413216 243.8284893 C-129.62550445 245.52479427 -129.63540706 247.22111783 -129.65462112 248.91731453 C-129.99990164 261.19995595 -129.99990164 261.19995595 -124.05859375 271.56640625 C-117.76168655 277.54846809 -111.99879943 277.88569963 -103.68359375 277.81640625 C-102.76320313 277.82414062 -101.8428125 277.831875 -100.89453125 277.83984375 C-94.33215258 277.8210941 -88.59302126 277.68825254 -83.37109375 273.31640625 C-78.22332831 267.19473924 -75.95042687 262.98391877 -75.91796875 254.9921875 C-75.89863281 253.68443359 -75.87929687 252.37667969 -75.859375 251.02929688 C-75.8305375 248.96008408 -75.80859684 246.89193586 -75.80810547 244.82250977 C-75.78258842 229.62710649 -75.78258842 229.62710649 -70.05859375 223.56640625 C-64.51353957 218.75672558 -59.83521005 217.18030321 -52.5 217.2890625 C-46.83119056 217.93303925 -41.87166341 220.23290348 -38.12109375 224.56640625 C-34.77618732 229.4317247 -33.81825447 232.17911584 -33.8203125 238.16796875 C-33.80419922 239.46347656 -33.78808594 240.75898438 -33.77148438 242.09375 C-33.75514338 244.134179 -33.74603237 246.17386742 -33.75317383 248.21435547 C-33.76503725 257.06877924 -33.21211118 264.14786955 -28.05859375 271.56640625 C-21.65743854 277.96756146 -14.81994729 277.95728106 -6.24609375 278.00390625 C-5.19099609 278.03677734 -4.13589844 278.06964844 -3.04882812 278.10351562 C3.92631117 278.15132032 8.58931425 277.17027774 13.94140625 272.56640625 C17.26594747 269.2507458 19.79543649 266.20898671 20.06445408 261.33879566 C20.06307139 260.02662335 20.06307139 260.02662335 20.06166077 258.6879425 C20.06303543 257.68253418 20.0644101 256.67712585 20.06582642 255.64125061 C20.06223114 254.53929855 20.05863586 253.4373465 20.05493164 252.30200195 C20.05515068 250.56033249 20.05515068 250.56033249 20.05537415 248.78347778 C20.05467614 244.93636218 20.04688891 241.08929467 20.0390625 237.2421875 C20.03719792 234.57846494 20.03572503 231.91474507 20.03477478 229.25102234 C20.03166568 222.95061334 20.02345795 216.65022168 20.01342529 210.34982032 C20.0022511 203.17697548 19.99675041 196.00412982 19.99172986 188.83127844 C19.981275 174.07631218 19.96368368 159.32135952 19.94140625 144.56640625 C17.98086304 144.47987793 17.98086304 144.47987793 15.98071289 144.39160156 C14.25015059 144.30950101 12.5196011 144.22712999 10.7890625 144.14453125 C9.92945923 144.10730957 9.06985596 144.07008789 8.1842041 144.03173828 C2.05644482 143.73174719 -3.37505837 142.99205796 -9.05859375 140.56640625 C-9.88359375 140.22738281 -10.70859375 139.88835937 -11.55859375 139.5390625 C-24.7771549 133.55443954 -32.9726112 122.97874806 -38.05859375 109.56640625 C-38.76948049 106.60762575 -39.27483903 103.6341208 -39.74609375 100.62890625 C-39.87564453 99.84966797 -40.00519531 99.07042969 -40.13867188 98.26757812 C-40.45324565 96.36848457 -40.75705257 94.46761269 -41.05859375 92.56640625 C-38.41859375 92.56640625 -35.77859375 92.56640625 -33.05859375 92.56640625 C-33.105 93.24445313 -33.15140625 93.9225 -33.19921875 94.62109375 C-33.6876331 107.21520656 -28.26459853 117.09735559 -19.87109375 126.25390625 C-8.13046759 137.34944306 5.96590604 137.94022396 21.23046875 137.93701172 C23.5697369 137.94141252 25.90715397 137.97793175 28.24609375 138.015625 C37.40850422 138.08601281 45.04659271 137.75028694 52.28125 131.56640625 C53.07208984 130.57640625 53.07208984 130.57640625 53.87890625 129.56640625 C54.42417969 128.90640625 54.96945312 128.24640625 55.53125 127.56640625 C57.87233786 124.2460822 59.18670184 121.63809001 59.22229004 117.53938293 C59.23371033 116.74754608 59.24513062 115.95570923 59.25689697 115.13987732 C59.25913269 114.28007767 59.26136841 113.42027802 59.26367188 112.53442383 C59.27360168 111.62170715 59.28353149 110.70899048 59.29376221 109.76861572 C59.3229679 106.7493589 59.33660438 103.73031238 59.34765625 100.7109375 C59.35916423 98.60829159 59.37067963 96.50564571 59.38220215 94.40299988 C59.40321278 89.99220809 59.41490354 85.58148908 59.421875 81.1706543 C59.4328294 75.532587 59.48085373 69.89548942 59.53781891 64.25772572 C59.5751665 59.91240175 59.58548792 55.56730888 59.58854675 51.221838 C59.59458186 49.14428099 59.61057847 47.06672719 59.63691711 44.98932838 C60.29417924 31.10244213 60.29417924 31.10244213 54.46276855 19.01054382 C53.96071899 18.53397842 53.45866943 18.05741302 52.94140625 17.56640625 C52.15765625 16.78265625 51.37390625 15.99890625 50.56640625 15.19140625 C44.54816961 11.46583119 38.94173158 10.10591985 31.92578125 10.16796875 C30.82015839 10.16366348 30.82015839 10.16366348 29.69219971 10.15927124 C28.14261094 10.157244 26.59299579 10.16267932 25.04345703 10.17529297 C22.7106591 10.19127435 20.37961785 10.1754475 18.046875 10.15625 C2.89223202 10.13376148 -9.63798475 12.66144098 -21.24609375 23.06640625 C-28.13685841 30.27930015 -33.22794494 40.8167459 -33.12109375 50.75390625 C-33.11207031 51.84058594 -33.10304687 52.92726562 -33.09375 54.046875 C-33.08214844 54.87832031 -33.07054687 55.70976563 -33.05859375 56.56640625 C-35.69859375 56.56640625 -38.33859375 56.56640625 -41.05859375 56.56640625 C-39.22093975 41.13011269 -35.92491591 26.96772906 -23.48046875 16.37109375 C-17.90067627 12.34124362 -12.51621583 8.99000762 -6.05859375 6.56640625 C-7.80890836 1.31546241 -13.43113492 -0.89787704 -18.11474609 -3.46435547 C-29.05926098 -8.92149238 -40.27898012 -10.61334736 -52.37109375 -10.62109375 C-53.36560547 -10.63333984 -54.36011719 -10.64558594 -55.38476562 -10.65820312 C-77.21199101 -10.70119832 -96.64108061 0.09160485 -111.21484375 15.90625 Z " fill="#6F9A40" transform="translate(273.05859375,62.43359375)"/>
<path d="M0 0 C2.64 0 5.28 0 8 0 C8.03867188 1.01707031 8.03867188 1.01707031 8.078125 2.0546875 C8.83432122 14.46318009 13.58262763 25.2541135 22.8125 33.75 C30.38424759 39.93072578 37.29359503 42.78443153 47 44 C46.66796875 45.88671875 46.66796875 45.88671875 46 48 C42.86207322 50.1162762 40.95976835 51.09084227 37.15234375 50.73046875 C24.85471188 47.88083163 14.881978 39.77541728 8.0625 29.375 C2.54263075 20.03268608 -0.47351918 10.89094123 0 0 Z " fill="#6D9540" transform="translate(232,155)"/>
<path d="M0 0 C0.33 0 0.66 0 1 0 C1 4.62 1 9.24 1 14 C1.99 14 2.98 14 4 14 C6.59582423 18.32637372 5.84762595 21.67915208 4.78125 26.3515625 C3.58022552 30.4230355 1.88822544 34.20521683 0 38 C-1.65 38 -3.3 38 -5 38 C-10.92329545 24.12256494 -10.92329545 24.12256494 -10 17 C-8 14 -8 14 -5 13 C-4.67 9.04 -4.34 5.08 -4 1 C-2.68 1.33 -1.36 1.66 0 2 C0 1.34 0 0.68 0 0 Z " fill="#709A41" transform="translate(321,233)"/>
<path d="M0 0 C8.40451718 0.55749613 13.98932994 1.99341628 20.43359375 7.45703125 C24.65677594 12.54969213 25.69775763 18.46723173 25.55859375 25.01953125 C24.89859375 25.67953125 24.23859375 26.33953125 23.55859375 27.01953125 C19.00303819 26.46397569 19.00303819 26.46397569 17.55859375 25.01953125 C17.26423718 23.41951387 16.9978907 21.81429591 16.74609375 20.20703125 C15.9256376 15.97806244 15.25028801 13.55097874 11.55859375 11.01953125 C7.67180261 8.90955892 3.78704434 8.61753469 -0.55078125 8.265625 C-2.44140625 8.01953125 -2.44140625 8.01953125 -3.44140625 7.01953125 C-3.56640625 4.01953125 -3.56640625 4.01953125 -3.44140625 1.01953125 C-2.44140625 0.01953125 -2.44140625 0.01953125 0 0 Z " fill="#719844" transform="translate(300.44140625,79.98046875)"/>
<path d="M0 0 C2.4375 1.5 2.4375 1.5 4 4 C4.67831686 7.15564802 4.7394557 9.85171135 4 13 C1.72167306 16.38628046 -1.06627293 17.80944345 -5.0625 18.625 C-9.11839195 17.76204427 -10.53796371 16.30616302 -13 13 C-14.12609115 9.05868098 -14.41447672 6.98165538 -12.8125 3.1875 C-8.93950162 -1.48680839 -5.82788101 -1.45697025 0 0 Z " fill="#6F9940" transform="translate(187,109)"/>
<path d="M0 0 C13.2 0 26.4 0 40 0 C40 0.33 40 0.66 40 1 C39.16021606 1.029729 39.16021606 1.029729 38.3034668 1.06005859 C35.76434146 1.15537783 33.22603112 1.26502753 30.6875 1.375 C29.36588867 1.42140625 29.36588867 1.42140625 28.01757812 1.46875 C26.74624023 1.52675781 26.74624023 1.52675781 25.44921875 1.5859375 C24.27879028 1.63306885 24.27879028 1.63306885 23.0847168 1.68115234 C20.69844232 1.89587889 20.69844232 1.89587889 18 4 C18.33 4.33 18.66 4.66 19 5 C19.09591199 6.56887635 19.12187996 8.14207792 19.12025452 9.71388245 C19.12162918 10.73336975 19.12300385 11.75285706 19.12442017 12.80323792 C19.12082489 13.931082 19.11722961 15.05892609 19.11352539 16.22094727 C19.11367142 17.40127533 19.11381744 18.58160339 19.1139679 19.79769897 C19.11338895 23.04342108 19.10835986 26.28910055 19.10139394 29.53481412 C19.09515962 32.92343032 19.09455654 36.31204728 19.09336853 39.70066833 C19.09025544 46.12155804 19.08204236 52.54243081 19.07201904 58.96331304 C19.0608572 66.27153825 19.05534727 73.57976424 19.05032361 80.88799584 C19.03985973 95.92534002 19.02226073 110.96266832 19 126 C18.67 126 18.34 126 18 126 C18 86.73 18 47.46 18 7 C11.73 7 5.46 7 -1 7 C-1.66 6.34 -2.32 5.68 -3 5 C-1.02 4.01 0.96 3.02 3 2 C2.01 1.34 1.02 0.68 0 0 Z " fill="#628B2F" transform="translate(275,200)"/>
<path d="M0 0 C1.15145508 -0.01836914 1.15145508 -0.01836914 2.32617188 -0.03710938 C6.22167874 -0.04729815 8.1241199 -0.02142006 11.4375 2.1875 C12.0975 1.8575 12.7575 1.5275 13.4375 1.1875 C13.4375 2.5075 13.4375 3.8275 13.4375 5.1875 C14.0975 5.8475 14.7575 6.5075 15.4375 7.1875 C14.50067383 7.20151855 14.50067383 7.20151855 13.54492188 7.21582031 C10.6750237 7.26998937 7.80667515 7.35354195 4.9375 7.4375 C3.46410156 7.45876953 3.46410156 7.45876953 1.9609375 7.48046875 C-4.60032298 7.69917743 -8.90937363 8.82254383 -14.5625 12.1875 C-14.3125 9.8125 -14.3125 9.8125 -13.5625 7.1875 C-11.5 5.875 -11.5 5.875 -9.5625 5.1875 C-11.2125 5.1875 -12.8625 5.1875 -14.5625 5.1875 C-13.8125 3.25 -13.8125 3.25 -12.5625 1.1875 C-8.45581396 -0.20187301 -4.28558136 0.00361652 0 0 Z " fill="#759E49" transform="translate(128.5625,123.8125)"/>
<path d="M0 0 C0.99 0.33 1.98 0.66 3 1 C3 27 3 27 2.375 29.375 C1.75402579 32.04930231 1.75402579 32.04930231 3.125 34.5 C3.41375 35.325 3.7025 36.15 4 37 C2.625 39.8125 2.625 39.8125 1 42 C-2 41 -2 41 -3.375 38.375 C-4 35 -4 35 -2.58203125 32.19140625 C0.08951367 26.37433264 -0.42343851 19.84161962 -0.3125 13.5625 C-0.27833984 12.25861328 -0.24417969 10.95472656 -0.20898438 9.61132812 C-0.12683847 6.40763802 -0.0575759 3.20421021 0 0 Z " fill="#6E983C" transform="translate(197,296)"/>
<path d="M0 0 C2.31 0.33 4.62 0.66 7 1 C7 1.66 7 2.32 7 3 C7.82201904 2.98952637 8.64403809 2.97905273 9.4909668 2.96826172 C13.22311331 2.92663241 16.9552109 2.90065147 20.6875 2.875 C21.98107422 2.85824219 23.27464844 2.84148438 24.60742188 2.82421875 C25.85458984 2.81777344 27.10175781 2.81132813 28.38671875 2.8046875 C29.53358154 2.79421387 30.68044434 2.78374023 31.86206055 2.77294922 C34.99191655 2.99941511 37.18079905 3.66543968 40 5 C40 5.33 40 5.66 40 6 C39.13834229 5.98952637 38.27668457 5.97905273 37.38891602 5.96826172 C34.15162161 5.933908 30.91442103 5.90896987 27.67700195 5.89013672 C26.28341591 5.8801607 24.88985034 5.86657499 23.49633789 5.84912109 C15.69121888 5.75390256 8.60021852 6.12941881 1 8 C-1.23608398 7.55810547 -1.23608398 7.55810547 -3 7 C-2.34 6.01 -1.68 5.02 -1 4 C-1.99 3.34 -2.98 2.68 -4 2 C-2.68 2 -1.36 2 0 2 C0 1.34 0 0.68 0 0 Z " fill="#6B963B" transform="translate(199,47)"/>
<path d="M0 0 C0.66 0.99 1.32 1.98 2 3 C1.67 3.66 1.34 4.32 1 5 C1.99 5 2.98 5 4 5 C4.33 7.64 4.66 10.28 5 13 C5.33 13 5.66 13 6 13 C6 14.65 6 16.3 6 18 C3.36 18 0.72 18 -2 18 C-2.23268915 11.71739294 -1.40454548 6.11980533 0 0 Z " fill="#6E973E" transform="translate(234,101)"/>
<path d="M0 0 C12.87 0.495 12.87 0.495 26 1 C26 1.33 26 1.66 26 2 C24.19402344 2.16435547 24.19402344 2.16435547 22.3515625 2.33203125 C20.77596853 2.49146635 19.20045139 2.65166212 17.625 2.8125 C16.8309375 2.88275391 16.036875 2.95300781 15.21875 3.02539062 C13.13220534 3.2464229 11.06260683 3.6150624 9 4 C8.01 5.485 8.01 5.485 7 7 C4.8359375 7.29296875 4.8359375 7.29296875 2.375 7.1875 C1.55773437 7.16042969 0.74046875 7.13335937 -0.1015625 7.10546875 C-1.04128906 7.05326172 -1.04128906 7.05326172 -2 7 C-2.66 5.68 -3.32 4.36 -4 3 C-3.01 2.67 -2.02 2.34 -1 2 C-0.67 1.34 -0.34 0.68 0 0 Z " fill="#69933A" transform="translate(156,339)"/>
<path d="M0 0 C0.99 0.33 1.98 0.66 3 1 C3 2.65 3 4.3 3 6 C3.66 6 4.32 6 5 6 C9 10.35294118 9 10.35294118 9 14 C9.66 14.33 10.32 14.66 11 15 C10.67 15.99 10.34 16.98 10 18 C9.34 18 8.68 18 8 18 C7.67 17.01 7.34 16.02 7 15 C6.401875 14.7525 5.80375 14.505 5.1875 14.25 C1.88547599 12.36312914 0.26526811 9.49213997 -1 6 C-0.75 2.5625 -0.75 2.5625 0 0 Z " fill="#6E9D3C" transform="translate(242,176)"/>
<path d="M0 0 C-0.165 0.598125 -0.33 1.19625 -0.5 1.8125 C-1.1114124 4.11344336 -1.1114124 4.11344336 -1 7 C-2.75 8.125 -2.75 8.125 -5 9 C-7.0625 8.1875 -7.0625 8.1875 -9 7 C-9.99 6.67 -10.98 6.34 -12 6 C-12.99 5.34 -13.98 4.68 -15 4 C-13.44219668 3.32243118 -11.87849904 2.65840543 -10.3125 2 C-9.44238281 1.62875 -8.57226562 1.2575 -7.67578125 0.875 C-4.9427998 -0.01870488 -2.85299066 -0.16449676 0 0 Z " fill="#739E45" transform="translate(199,48)"/>
<path d="M0 0 C2.43115153 2.30319618 4.43052814 4.81165896 6.42578125 7.5 C12.25805116 13.05729937 19.30067745 12.53789431 26.875 12.6875 C28.0403125 12.72166016 29.205625 12.75582031 30.40625 12.79101562 C33.27073718 12.87319354 36.13492985 12.94244421 39 13 C39 13.33 39 13.66 39 14 C35.04903022 14.04939662 31.0981797 14.08571755 27.14697266 14.10986328 C25.1408864 14.12488107 23.13488676 14.15028981 21.12890625 14.17578125 C19.87207031 14.18222656 18.61523438 14.18867188 17.3203125 14.1953125 C16.15773926 14.20578613 14.99516602 14.21625977 13.79736328 14.22705078 C11 14 11 14 9 12 C8.0409375 11.8453125 8.0409375 11.8453125 7.0625 11.6875 C4.0601525 10.6867175 3.48109361 8.69289746 2 6 C1.34 5.67 0.68 5.34 0 5 C0 3.35 0 1.7 0 0 Z " fill="#638738" transform="translate(69,209)"/>
<path d="M0 0 C2.64 0 5.28 0 8 0 C8 3.63 8 7.26 8 11 C7.67 11 7.34 11 7 11 C6.67 9.35 6.34 7.7 6 6 C5.67 7.65 5.34 9.3 5 11 C2 10 2 10 0 7 C-0.07905064 4.66800612 -0.08798769 2.33167378 0 0 Z " fill="#779E4A" transform="translate(232,155)"/>
<path d="M0 0 C3.1875 2.3125 3.1875 2.3125 4.1875 5.3125 C2.2075 5.9725 0.2275 6.6325 -1.8125 7.3125 C-2.1425 6.6525 -2.4725 5.9925 -2.8125 5.3125 C-3.8025 5.8075 -3.8025 5.8075 -4.8125 6.3125 C-5.4725 5.3225 -6.1325 4.3325 -6.8125 3.3125 C-7.8025 2.9825 -8.7925 2.6525 -9.8125 2.3125 C-9.8125 1.6525 -9.8125 0.9925 -9.8125 0.3125 C-5.90815183 -1.59206008 -3.78385882 -2.07174088 0 0 Z " fill="#F9FBF5" transform="translate(262.8125,63.6875)"/>
<path d="M0 0 C0.66 0.33 1.32 0.66 2 1 C2 2.32 2 3.64 2 5 C2.66 5 3.32 5 4 5 C4.33 4.34 4.66 3.68 5 3 C5.87890625 9.15234375 5.87890625 9.15234375 6 11 C5 12 5 12 2.4375 12.0625 C1.633125 12.041875 0.82875 12.02125 0 12 C-2.21538462 4.61538462 -2.21538462 4.61538462 -1.125 1.5 C-0.75375 1.005 -0.3825 0.51 0 0 Z " fill="#6B9639" transform="translate(316,259)"/>
<path d="M0 0 C2.125 0.9375 2.125 0.9375 4 2 C3.44687265 6.02992782 2.8441938 10.02022924 2 14 C1.34 14 0.68 14 0 14 C-0.53394179 12.5882217 -1.05165104 11.17029756 -1.5625 9.75 C-1.85253906 8.96109375 -2.14257812 8.1721875 -2.44140625 7.359375 C-3.05200662 4.78033567 -2.98889737 3.44252247 -2 1 C-1.34 0.67 -0.68 0.34 0 0 Z " fill="#F3F9EB" transform="translate(318,250)"/>
<path d="M0 0 C3 1 3 1 4 3 C4.15306901 4.81171098 4.24946661 6.6283794 4.31640625 8.4453125 C4.35830078 9.52167969 4.40019531 10.59804687 4.44335938 11.70703125 C4.48267578 12.83496094 4.52199219 13.96289062 4.5625 15.125 C4.60568359 16.26066406 4.64886719 17.39632812 4.69335938 18.56640625 C4.7996604 21.37747768 4.90169405 24.18863945 5 27 C4.34 27 3.68 27 3 27 C0.89335823 23.84003735 0.7214116 22.86196128 0.5859375 19.21875 C0.54726562 18.29449219 0.50859375 17.37023437 0.46875 16.41796875 C0.4378125 15.45503906 0.406875 14.49210938 0.375 13.5 C0.33632812 12.53707031 0.29765625 11.57414063 0.2578125 10.58203125 C0.11996799 7.05222722 0 3.53270524 0 0 Z " fill="#799F4E" transform="translate(84,172)"/>
<path d="M0 0 C-1.6085029 1.6085029 -3.46787647 1.33543801 -5.69140625 1.53515625 C-6.63564453 1.62216797 -7.57988281 1.70917969 -8.55273438 1.79882812 C-9.54595703 1.88583984 -10.53917969 1.97285156 -11.5625 2.0625 C-12.55958984 2.15337891 -13.55667969 2.24425781 -14.58398438 2.33789062 C-17.05565702 2.56258814 -19.52763256 2.78310351 -22 3 C-21.67 3.99 -21.34 4.98 -21 6 C-22.98 6 -24.96 6 -27 6 C-26.01 4.35 -25.02 2.7 -24 1 C-24.66 0.67 -25.32 0.34 -26 0 C-22.04204914 -0.19625099 -18.08363065 -0.38051982 -14.125 -0.5625 C-12.43310547 -0.64661133 -12.43310547 -0.64661133 -10.70703125 -0.73242188 C-9.09248047 -0.80493164 -9.09248047 -0.80493164 -7.4453125 -0.87890625 C-5.95281982 -0.94960327 -5.95281982 -0.94960327 -4.43017578 -1.02172852 C-2 -1 -2 -1 0 0 Z " fill="#668F36" transform="translate(281,340)"/>
<path d="M0 0 C0.99 0.33 1.98 0.66 3 1 C3.0871747 4.74985325 3.14045003 8.49944555 3.1875 12.25 C3.22520508 13.84521484 3.22520508 13.84521484 3.26367188 15.47265625 C3.27333984 16.49746094 3.28300781 17.52226562 3.29296875 18.578125 C3.3086792 19.52075195 3.32438965 20.46337891 3.34057617 21.43457031 C3 24 3 24 0 28 C0 18.76 0 9.52 0 0 Z " fill="#5E8B28" transform="translate(197,296)"/>
<path d="M0 0 C0.66 0 1.32 0 2 0 C2.02578125 0.83144531 2.0515625 1.66289062 2.078125 2.51953125 C2.13484375 3.60621094 2.1915625 4.69289062 2.25 5.8125 C2.29640625 6.89144531 2.3428125 7.97039062 2.390625 9.08203125 C2.72954022 12.11744232 2.72954022 12.11744232 5.046875 13.88671875 C5.69140625 14.25410156 6.3359375 14.62148437 7 15 C6.67 16.65 6.34 18.3 6 20 C3.625 20.625 3.625 20.625 1 21 C0.34 20.34 -0.32 19.68 -1 19 C-0.360625 18.87625 0.27875 18.7525 0.9375 18.625 C1.618125 18.41875 2.29875 18.2125 3 18 C3.33 17.34 3.66 16.68 4 16 C3.01 15.67 2.02 15.34 1 15 C-0.44207941 12.11584117 -0.09394887 9.58278472 -0.0625 6.375 C-0.05347656 5.18648437 -0.04445313 3.99796875 -0.03515625 2.7734375 C-0.02355469 1.85820312 -0.01195313 0.94296875 0 0 Z " fill="#739F46" transform="translate(89,184)"/>
<path d="M0 0 C0.33 0.66 0.66 1.32 1 2 C2.98 1.67 4.96 1.34 7 1 C3.32167983 5.52615993 -0.41086363 9.39424999 -5 13 C-5 10 -5 10 -2.5 7.3125 C-1.675 6.549375 -0.85 5.78625 0 5 C-0.928125 5.309375 -0.928125 5.309375 -1.875 5.625 C-2.57625 5.74875 -3.2775 5.8725 -4 6 C-4.66 5.34 -5.32 4.68 -6 4 C-2.25 0 -2.25 0 0 0 Z " fill="#6D9B3B" transform="translate(165,67)"/>
<path d="M0 0 C2.97 0.33 5.94 0.66 9 1 C8 5 8 5 5.125 6.8125 C2 8 2 8 -1 7 C-0.34 7 0.32 7 1 7 C0.67 5.68 0.34 4.36 0 3 C-0.99 3.33 -1.98 3.66 -3 4 C-3.66 3.34 -4.32 2.68 -5 2 C-3.35 2 -1.7 2 0 2 C0 1.34 0 0.68 0 0 Z " fill="#77A14A" transform="translate(270,198)"/>
<path d="M0 0 C0.66 1.32 1.32 2.64 2 4 C2.66 3.67 3.32 3.34 4 3 C3.67 4.98 3.34 6.96 3 9 C2.34 9 1.68 9 1 9 C-0.14814997 11.29629994 -0.30769809 13.07698086 -0.5625 15.625 C-0.64628906 16.44226563 -0.73007812 17.25953125 -0.81640625 18.1015625 C-0.87699219 18.72804687 -0.93757813 19.35453125 -1 20 C-1.33 20 -1.66 20 -2 20 C-2.24798276 17.04213336 -2.47411854 14.08538702 -2.6875 11.125 C-2.76033203 10.28324219 -2.83316406 9.44148437 -2.90820312 8.57421875 C-2.96298828 7.76855469 -3.01777344 6.96289062 -3.07421875 6.1328125 C-3.13182373 5.38918457 -3.18942871 4.64555664 -3.2487793 3.87939453 C-3.16668213 3.25919434 -3.08458496 2.63899414 -3 2 C-2.01 1.34 -1.02 0.68 0 0 Z " fill="#76A048" transform="translate(318,226)"/>
<path d="M0 0 C0.9075 0.103125 1.815 0.20625 2.75 0.3125 C3.08 0.9725 3.41 1.6325 3.75 2.3125 C2.1 2.6425 0.45 2.9725 -1.25 3.3125 C-1.91 5.9525 -2.57 8.5925 -3.25 11.3125 C-4.24 11.3125 -5.23 11.3125 -6.25 11.3125 C-5.92 9.6625 -5.59 8.0125 -5.25 6.3125 C-5.91 5.9825 -6.57 5.6525 -7.25 5.3125 C-4.05 0.38942308 -4.05 0.38942308 0 0 Z " fill="#6C9A39" transform="translate(116.25,127.6875)"/>
<path d="M0 0 C2.02855159 2.02855159 3.00835839 3.33019566 4 6 C3.625 8.75 3.625 8.75 3 11 C1.35 11.33 -0.3 11.66 -2 12 C-2.33 9.03 -2.66 6.06 -3 3 C-2.01 3.495 -2.01 3.495 -1 4 C-0.67 2.68 -0.34 1.36 0 0 Z " fill="#759F46" transform="translate(322,95)"/>
<path d="M0 0 C0.99 1.32 1.98 2.64 3 4 C3.99 3.01 4.98 2.02 6 1 C5.67 1.928125 5.34 2.85625 5 3.8125 C3.85032996 6.92029291 3.85032996 6.92029291 4 10 C3.01 10 2.02 10 1 10 C0.34 10.66 -0.32 11.32 -1 12 C-1 10.68 -1 9.36 -1 8 C-1.66 8 -2.32 8 -3 8 C-1.125 2.25 -1.125 2.25 0 0 Z " fill="#749E46" transform="translate(144,93)"/>
<path d="M0 0 C0 0.33 0 0.66 0 1 C-14.85 0.505 -14.85 0.505 -30 0 C-30 -0.33 -30 -0.66 -30 -1 C-8.07102428 -3.88946504 -8.07102428 -3.88946504 0 0 Z " fill="#628736" transform="translate(239,52)"/>
<path d="M0 0 C1.32 0.66 2.64 1.32 4 2 C1.76592111 5.35111834 0.73784176 6.81553956 -3.25 7.8125 C-4.61125 7.9053125 -4.61125 7.9053125 -6 8 C-4.73058503 4.08597051 -3.48832306 2.20927127 0 0 Z " fill="#719D44" transform="translate(329,194)"/>
<path d="M0 0 C0.33292585 4.24480464 0.43885872 6.35542625 -2 9.9375 C-2.66 10.618125 -3.32 11.29875 -4 12 C-4.99 10.68 -5.98 9.36 -7 8 C-6.525625 7.401875 -6.05125 6.80375 -5.5625 6.1875 C-3.83534256 3.99617076 -3.83534256 3.99617076 -3 1 C-1 0 -1 0 0 0 Z " fill="#6B963C" transform="translate(295,325)"/>
<path d="M0 0 C0.12375 0.598125 0.2475 1.19625 0.375 1.8125 C0.95475985 4.26231348 0.95475985 4.26231348 3 7 C0.08291076 8.98362069 -1.12380904 8.9876191 -4.75 8.625 C-5.8225 8.41875 -6.895 8.2125 -8 8 C-6.68 7.34 -5.36 6.68 -4 6 C-4 4.68 -4 3.36 -4 2 C-2.68 1.34 -1.36 0.68 0 0 Z " fill="#719C40" transform="translate(187,337)"/>
<path d="M0 0 C2.97 0.495 2.97 0.495 6 1 C6 2.32 6 3.64 6 5 C6.66 5.33 7.32 5.66 8 6 C0.57142857 6.28571429 0.57142857 6.28571429 -3 4 C-2.01 2.68 -1.02 1.36 0 0 Z " fill="#729E42" transform="translate(262,70)"/>
<path d="M0 0 C0.33 0 0.66 0 1 0 C1.33 2.64 1.66 5.28 2 8 C2.33 8 2.66 8 3 8 C3 9.65 3 11.3 3 13 C0.36 13 -2.28 13 -5 13 C-5 10.36 -5 7.72 -5 5 C-4.67 5 -4.34 5 -4 5 C-4 7.31 -4 9.62 -4 12 C-2.68 12 -1.36 12 0 12 C-0.08378906 11.38511719 -0.16757813 10.77023438 -0.25390625 10.13671875 C-0.40666016 8.92435547 -0.40666016 8.92435547 -0.5625 7.6875 C-0.66691406 6.88699219 -0.77132812 6.08648437 -0.87890625 5.26171875 C-1 3 -1 3 0 0 Z " fill="#80A35C" transform="translate(237,106)"/>
<path d="M0 0 C0 0.66 0 1.32 0 2 C-0.66 2 -1.32 2 -2 2 C-2 2.99 -2 3.98 -2 5 C-2.66 5 -3.32 5 -4 5 C-4 5.66 -4 6.32 -4 7 C-5.32 7 -6.64 7 -8 7 C-8.66 8.98 -9.32 10.96 -10 13 C-10.33 12.01 -10.66 11.02 -11 10 C-8.72107417 5.8804033 -5.25356807 0 0 0 Z " fill="#678E3E" transform="translate(209,282)"/>
<path d="M0 0 C0 3 0 3 -2.5 5.6875 C-3.325 6.450625 -4.15 7.21375 -5 8 C-3.68 8.33 -2.36 8.66 -1 9 C-7.52307692 9.36923077 -7.52307692 9.36923077 -9.9375 7.5 C-10.4634375 6.7575 -10.4634375 6.7575 -11 6 C-10.360625 5.896875 -9.72125 5.79375 -9.0625 5.6875 C-8.381875 5.460625 -7.70125 5.23375 -7 5 C-6.67 4.01 -6.34 3.02 -6 2 C-2.9375 0.8125 -2.9375 0.8125 0 0 Z " fill="#699339" transform="translate(101,198)"/>
<path d="M0 0 C2.31 0 4.62 0 7 0 C7 1.32 7 2.64 7 4 C4 6 4 6 1.875 5.8125 C1.25625 5.544375 0.6375 5.27625 0 5 C-0.33 4.01 -0.66 3.02 -1 2 C-0.67 1.34 -0.34 0.68 0 0 Z " fill="#719F44" transform="translate(274,68)"/>
<path d="M0 0 C1.98 0.99 3.96 1.98 6 3 C6 3.99 6 4.98 6 6 C5.01 6.495 5.01 6.495 4 7 C3.67 7.99 3.34 8.98 3 10 C-0.16115776 8.63016497 -0.9927092 8.0109362 -3 5 C-1.02 5 0.96 5 3 5 C3 4.34 3 3.68 3 3 C2.01 2.67 1.02 2.34 0 2 C0 1.34 0 0.68 0 0 Z " fill="#769E4C" transform="translate(258,192)"/>
<path d="M0 0 C1.32 0.33 2.64 0.66 4 1 C2.90931332 4.77545388 2.0916909 7.47043472 -1 10 C-2.25 3.375 -2.25 3.375 0 0 Z " fill="#6A923D" transform="translate(175,112)"/>
<path d="M0 0 C2.3431213 0.25561323 4.67843403 0.59270772 7 1 C7.33 1.66 7.66 2.32 8 3 C7.01 3 6.02 3 5 3 C5 3.66 5 4.32 5 5 C2.69 5.33 0.38 5.66 -2 6 C-1.34 5.67 -0.68 5.34 0 5 C0 3.35 0 1.7 0 0 Z " fill="#699439" transform="translate(310,83)"/>
<path d="M0 0 C0.99 0.33 1.98 0.66 3 1 C3 1.99 3 2.98 3 4 C3.5775 4.0825 4.155 4.165 4.75 4.25 C7.6159304 5.20531013 8.9990764 6.78469173 11 9 C7.63693487 9 6.69475899 8.40819927 3.9375 6.625 C3.24527344 6.18414062 2.55304688 5.74328125 1.83984375 5.2890625 C0 4 0 4 -2 2 C-1.34 2 -0.68 2 0 2 C0 1.34 0 0.68 0 0 Z M9 4 C9.66 4.66 10.32 5.32 11 6 C10.34 6 9.68 6 9 6 C9 5.34 9 4.68 9 4 Z " fill="#6A903D" transform="translate(317,71)"/>
<path d="M0 0 C4.05006812 1.91845332 6.5236419 4.28546285 9 8 C9.75 10.8125 9.75 10.8125 10 13 C7.74754119 10.31158141 6.11786042 8.35358125 5 5 C4.34 5 3.68 5 3 5 C2.34 4.34 1.68 3.68 1 3 C0.01 3 -0.98 3 -2 3 C-2 2.34 -2 1.68 -2 1 C-1.34 0.67 -0.68 0.34 0 0 Z " fill="#688E3D" transform="translate(229,282)"/>
<path d="M0 0 C2.46278801 2.46278801 2.99771255 4.70676982 4 8 C3.34 8 2.68 8 2 8 C1.67 9.32 1.34 10.64 1 12 C0.34 11.67 -0.32 11.34 -1 11 C-0.67 10.01 -0.34 9.02 0 8 C-0.66 8 -1.32 8 -2 8 C-2 6.35 -2 4.7 -2 3 C-1.34 3 -0.68 3 0 3 C0 2.01 0 1.02 0 0 Z " fill="#749C47" transform="translate(241,169)"/>
<path d="M0 0 C0 1.65 0 3.3 0 5 C-0.66 5 -1.32 5 -2 5 C-2.33 6.32 -2.66 7.64 -3 9 C-3.66 9 -4.32 9 -5 9 C-5.33 7.02 -5.66 5.04 -6 3 C-1.125 0 -1.125 0 0 0 Z " fill="#689437" transform="translate(241,167)"/>
<path d="M0 0 C2.12508244 3.18762365 2.5020163 5.26512223 3 9 C1.35 9.66 -0.3 10.32 -2 11 C-2 8.69 -2 6.38 -2 4 C-1.34 4 -0.68 4 0 4 C0 2.68 0 1.36 0 0 Z " fill="#759F48" transform="translate(145,328)"/>
<path d="M0 0 C2.31 0.33 4.62 0.66 7 1 C7 1.66 7 2.32 7 3 C9.97 3.495 9.97 3.495 13 4 C13 4.33 13 4.66 13 5 C9.62114388 5.28526928 6.36708009 5.46087248 3 5 C0.875 2.5 0.875 2.5 0 0 Z M-1 2 C1 3 1 3 1 3 Z " fill="#739E42" transform="translate(203,46)"/>
<path d="M0 0 C0.66 0.33 1.32 0.66 2 1 C-1.63 4.63 -5.26 8.26 -9 12 C-9.66 11.34 -10.32 10.68 -11 10 C-10.278125 9.443125 -9.55625 8.88625 -8.8125 8.3125 C-6.02417676 6.01987867 -3.51572008 3.58560119 -1 1 C-0.67 0.67 -0.34 0.34 0 0 Z " fill="#688B3F" transform="translate(170,68)"/>
<path d="M0 0 C-0.99 0.495 -0.99 0.495 -2 1 C-2 1.66 -2 2.32 -2 3 C-2.99 3 -3.98 3 -5 3 C-5.33 3.66 -5.66 4.32 -6 5 C-7.32 4.34 -8.64 3.68 -10 3 C-6.48812804 0.59185923 -4.27343092 -0.36629408 0 0 Z " fill="#759A4A" transform="translate(185,108)"/>
<path d="M0 0 C2.76223278 2.76223278 2.57856291 5.20706617 3 9 C0 9 0 9 -2 8 C-1.34 5.36 -0.68 2.72 0 0 Z " fill="#EEF4E7" transform="translate(295,79)"/>
<path d="M0 0 C2.31 1.65 4.62 3.3 7 5 C3 6 3 6 -1 6 C-0.67 4.02 -0.34 2.04 0 0 Z " fill="#689239" transform="translate(243,332)"/>
<path d="M0 0 C0.556875 0.70125 1.11375 1.4025 1.6875 2.125 C4.09124732 5.11344261 6.53810432 8.05940238 9 11 C8.01 11.33 7.02 11.66 6 12 C4.3372974 9.32521756 3.00016187 7.0004856 2 4 C1.34 4 0.68 4 0 4 C0 2.68 0 1.36 0 0 Z " fill="#75984C" transform="translate(245,178)"/>
<path d="M0 0 C0.66 0 1.32 0 2 0 C3.5111995 5.03733166 2.64599773 9.88171027 2 15 C1.67 15 1.34 15 1 15 C0.67 10.05 0.34 5.1 0 0 Z " fill="#709D3D" transform="translate(237,101)"/>
<path d="M0 0 C1.98 0.495 1.98 0.495 4 1 C3.67 2.32 3.34 3.64 3 5 C3.66 5.33 4.32 5.66 5 6 C3.35 6 1.7 6 0 6 C-1 3 -1 3 0 0 Z " fill="#729C45" transform="translate(316,265)"/>
<path d="M0 0 C0.66 0.33 1.32 0.66 2 1 C1.67 1.66 1.34 2.32 1 3 C1.66 3.33 2.32 3.66 3 4 C2.01 4.99 1.02 5.98 0 7 C-0.66 6.67 -1.32 6.34 -2 6 C-1.125 1.125 -1.125 1.125 0 0 Z " fill="#6A9637" transform="translate(191,334)"/>
<path d="M0 0 C2.475 0.495 2.475 0.495 5 1 C5 2.33333333 5 3.66666667 5 5 C3.35 5 1.7 5 0 5 C0 3.35 0 1.7 0 0 Z " fill="#669039" transform="translate(297,82)"/>
<path d="M0 0 C0.66 0.33 1.32 0.66 2 1 C2 2.98 2 4.96 2 7 C1.01 6.34 0.02 5.68 -1 5 C-1.66 5 -2.32 5 -3 5 C-2.625 3.0625 -2.625 3.0625 -2 1 C-1.34 0.67 -0.68 0.34 0 0 Z " fill="#689039" transform="translate(314,251)"/>
<path d="M0 0 C0.5534764 2.07553648 1 3.84365964 1 6 C-0.9375 5.6875 -0.9375 5.6875 -3 5 C-3.33 4.01 -3.66 3.02 -4 2 C-2.68 1.34 -1.36 0.68 0 0 Z " fill="#679137" transform="translate(187,337)"/>
<path d="M0 0 C0.66 0.33 1.32 0.66 2 1 C0.515 4.465 0.515 4.465 -1 8 C-1.66 8 -2.32 8 -3 8 C-1.125 2.25 -1.125 2.25 0 0 Z " fill="#F5FBF0" transform="translate(246,93)"/>
<path d="M0 0 C0.66 0.33 1.32 0.66 2 1 C2 1.66 2 2.32 2 3 C1.21625 3.12375 0.4325 3.2475 -0.375 3.375 C-3.14057822 3.79117993 -3.14057822 3.79117993 -5 6 C-5 5.01 -5 4.02 -5 3 C-2.625 1.25 -2.625 1.25 0 0 Z " fill="#F0F6E7" transform="translate(264,77)"/>
<path d="M0 0 C0.99 0.33 1.98 0.66 3 1 C3 1.66 3 2.32 3 3 C1.02 3.66 -0.96 4.32 -3 5 C-2.625 3.0625 -2.625 3.0625 -2 1 C-1.34 0.67 -0.68 0.34 0 0 Z " fill="#EFF7E9" transform="translate(264,66)"/>
</svg>
